# xmcd CD database file
#
# Track frame offsets:
#	150
#	14053
#	30067
#	42470
#	56206
#	68871
#	81233
#	95407
#	107946
#	142459
#
# Disc length: 2080 seconds
#
# Revision: 0
# Processed by: cddbd v1.5.2PL0 Copyright (c) Steve Scherf et al.
# Submitted via: CDex 2.09
#
DISCID=91081e0a
DTITLE=Thelonius Monk - Monk's moods
DYEAR=1954
DGENRE=Jazz
TTITLE0=Little Rootie Tootie
TTITLE1=Sweet and lovely
TTITLE2=Bye ya
TTITLE3=Monk's dream
TTITLE4=Trinkle tinkle
TTITLE5=These foolish things
TTITLE6=Bemsha swing
TTITLE7=Reflections
TTITLE8=Blue Monk
TTITLE9=Just a gigolo
EXTD=YEAR: 1954
EXTT0=
EXTT1=
EXTT2=
EXTT3=
EXTT4=
EXTT5=
EXTT6=
EXTT7=
EXTT8=
EXTT9=
PLAYORDER=
